<svg xmlns="http://www.w3.org/2000/svg" version="1.1" xmlns:xlink="http://www.w3.org/1999/xlink" xmlns:svgjs="http://svgjs.dev/svgjs" width="1000" height="637" viewBox="0 0 1000 637"><g transform="matrix(1,0,0,1,0.1066666666666265,-0.48639586636210197)"><svg viewBox="0 0 375 239" data-background-color="#ffffff" preserveAspectRatio="xMidYMid meet" height="637" width="1000" xmlns="http://www.w3.org/2000/svg" xmlns:xlink="http://www.w3.org/1999/xlink"><g id="tight-bounds" transform="matrix(1,0,0,1,-0.03976036071776434,0.18295410156250114)"><svg viewBox="0 0 375.07952880859375 238.63455200195312" height="238.63455200195312" width="375.07952880859375"><g><svg></svg></g><g><svg viewBox="0 0 375.07952880859375 238.63455200195312" height="238.63455200195312" width="375.07952880859375"><g transform="matrix(1,0,0,1,-10.220239639282227,-8.565460205078125)"><path xmlns="http://www.w3.org/2000/svg" d="M10.22 238.635v-230.07h375.08v230.07h-15.386l0-4.649h10.737v-220.772h-365.782v220.772l14.027 0 0 4.649z" fill="#8b3c7f" fill-rule="nonzero" stroke="none" stroke-width="1" stroke-linecap="butt" stroke-linejoin="miter" stroke-miterlimit="10" stroke-dasharray="" stroke-dashoffset="0" font-family="none" font-weight="none" font-size="none" text-anchor="none" style="mix-blend-mode: normal" data-fill-palette-color="tertiary"></path><g><path xmlns="http://www.w3.org/2000/svg" d="M54.928 241.576v0c0 1.823-0.611 3.215-1.833 4.176-1.222 0.965-2.786 1.448-4.692 1.448v0c-2.154 0-3.987-0.456-5.499-1.367v0-2.144c0.621 0.476 1.425 0.87 2.411 1.181 0.982 0.311 1.98 0.466 2.995 0.466v0c1.471 0 2.616-0.321 3.437-0.963 0.816-0.642 1.224-1.564 1.224-2.766v0c0-0.911-0.311-1.653-0.932-2.224-0.621-0.568-1.522-1.11-2.703-1.628v0c-0.166-0.083-0.528-0.244-1.088-0.485-0.559-0.236-0.953-0.406-1.181-0.509-0.228-0.104-0.58-0.28-1.056-0.529-0.476-0.249-0.822-0.466-1.038-0.652-0.22-0.186-0.495-0.435-0.826-0.746-0.331-0.311-0.57-0.621-0.715-0.932-0.145-0.311-0.28-0.679-0.404-1.106-0.124-0.423-0.186-0.872-0.186-1.348v0c0-1.761 0.632-3.134 1.895-4.12 1.264-0.982 2.807-1.473 4.63-1.473v0c1.74 0 3.19 0.311 4.349 0.932v0 2.144c-0.497-0.331-1.15-0.611-1.957-0.839-0.808-0.228-1.595-0.342-2.361-0.342v0c-1.388 0-2.496 0.325-3.325 0.976-0.829 0.655-1.243 1.52-1.243 2.597v0c0 0.559 0.11 1.056 0.33 1.492 0.215 0.435 0.582 0.833 1.1 1.193 0.518 0.365 0.969 0.644 1.354 0.839 0.381 0.199 0.965 0.464 1.753 0.795v0c0.725 0.311 1.274 0.555 1.646 0.733 0.373 0.174 0.849 0.447 1.43 0.821 0.58 0.373 1.021 0.739 1.323 1.099 0.298 0.365 0.568 0.831 0.808 1.399 0.236 0.572 0.354 1.199 0.354 1.882zM116.216 226.042l-7.146 13.111v7.83h-1.926v-7.83l-7.084-13.111h2.206l1.646 3.076 4.195 8.078c0.166-0.394 1.585-3.086 4.256-8.078v0l1.647-3.076zM173.682 241.576v0c0 1.823-0.611 3.215-1.833 4.176-1.222 0.965-2.786 1.448-4.691 1.448v0c-2.154 0-3.987-0.456-5.5-1.367v0-2.144c0.621 0.476 1.425 0.87 2.411 1.181 0.982 0.311 1.98 0.466 2.995 0.466v0c1.471 0 2.616-0.321 3.437-0.963 0.816-0.642 1.224-1.564 1.224-2.766v0c0-0.911-0.311-1.653-0.932-2.224-0.621-0.568-1.522-1.11-2.703-1.628v0c-0.166-0.083-0.528-0.244-1.088-0.485-0.559-0.236-0.953-0.406-1.18-0.509-0.228-0.104-0.58-0.28-1.057-0.529-0.476-0.249-0.822-0.466-1.038-0.652-0.22-0.186-0.495-0.435-0.826-0.746-0.331-0.311-0.57-0.621-0.715-0.932-0.145-0.311-0.28-0.679-0.403-1.106-0.124-0.423-0.186-0.872-0.187-1.348v0c0-1.761 0.632-3.134 1.895-4.12 1.264-0.982 2.807-1.473 4.63-1.473v0c1.74 0 3.19 0.311 4.349 0.932v0 2.144c-0.497-0.331-1.15-0.611-1.957-0.839-0.808-0.228-1.595-0.342-2.361-0.342v0c-1.388 0-2.496 0.325-3.325 0.976-0.829 0.655-1.243 1.52-1.242 2.597v0c0 0.559 0.11 1.056 0.329 1.492 0.215 0.435 0.582 0.833 1.1 1.193 0.518 0.365 0.969 0.644 1.354 0.839 0.381 0.199 0.965 0.464 1.753 0.795v0c0.725 0.311 1.274 0.555 1.646 0.733 0.373 0.174 0.849 0.447 1.43 0.821 0.58 0.373 1.021 0.739 1.323 1.099 0.298 0.365 0.568 0.831 0.808 1.399 0.236 0.572 0.354 1.199 0.354 1.882zM231.869 226.042v1.771h-5.81v19.17h-1.926v-19.17h-5.779v-1.771zM288.341 245.212v1.771h-11.34v-20.941h11.154v1.771h-9.228v7.829h8.14v1.771h-8.14v7.799zM336.766 238.687l-0.59 8.296h-1.926l1.46-20.941h2.641l2.734 7.674 3.697 10.657c1.429-3.935 2.734-7.488 3.915-10.657v0l2.858-7.674h2.641l1.771 20.941h-1.926l-0.715-8.296-0.839-10.129c-1.243 3.459-2.475 6.835-3.697 10.129v0l-2.889 7.767h-2.268l-2.735-7.767-3.479-9.911c-0.186 3.128-0.404 6.431-0.653 9.911z" fill="#8b3c7f" fill-rule="nonzero" stroke="none" stroke-width="1" stroke-linecap="butt" stroke-linejoin="miter" stroke-miterlimit="10" stroke-dasharray="" stroke-dashoffset="0" font-family="none" font-weight="none" font-size="none" text-anchor="none" style="mix-blend-mode: normal" data-fill-palette-color="secondary"></path></g></g><g transform="matrix(1,0,0,1,29.331764404296877,38.06027116396373)"><svg viewBox="0 0 316.416 162.51400967402566" height="162.51400967402566" width="316.416"><g><svg viewBox="0 0 317.99807999999996 163.32657972239576" height="162.51400967402566" width="316.416"><g><rect width="317.99807999999996" height="4.672074945435674" x="0" y="83.82885149740552" fill="#8b3c7f" opacity="1" stroke-width="0" stroke="transparent" fill-opacity="1" class="rect-o-0" data-fill-palette-color="primary" rx="1%" id="o-0" data-palette-color="#8b3c7f"></rect></g><g><rect width="317.99807999999996" height="4.672074945435674" x="0" y="94.61620778503449" fill="#8b3c7f" opacity="1" stroke-width="0" stroke="transparent" fill-opacity="1" class="rect-o-1" data-fill-palette-color="primary" rx="1%" id="o-1" data-palette-color="#8b3c7f"></rect></g><g transform="matrix(1,0,0,1,0.7910399999999811,111.51884541485674)"><svg viewBox="0 0 316.416 51.80773430753902" height="51.80773430753902" width="316.416"><g id="textblocktransform"><svg viewBox="0 0 316.416 51.80773430753902" height="51.80773430753902" width="316.416" id="textblock"><g><svg viewBox="0 0 316.416 51.80773430753902" height="51.80773430753902" width="316.416"><g transform="matrix(1,0,0,1,0,0)"><svg width="316.416" viewBox="0.9800000190734863 -35.45000076293945 220.510009765625 36.11000061035156" height="51.80773430753902" data-palette-color="#8b3c7f"><path d="M16.28 0L1.27 0Q1.07 0 1.07-0.49L1.07-0.49 1.07-0.78Q1.07-0.98 1.27-0.98L1.27-0.98Q1.42-0.98 1.73-1.03 2.05-1.07 2.39-1.12 2.73-1.17 3.03-1.23 3.32-1.29 3.44-1.32L3.44-1.32Q5.93-1.88 5.93-4.15L5.93-4.15 5.93-29.93Q5.93-32.03 4.25-32.91L4.25-32.91Q3.25-33.45 2.1-33.45L2.1-33.45 1.17-33.45Q0.98-33.45 0.98-33.64L0.98-33.64 0.98-34.23Q0.98-34.42 1.27-34.42L1.27-34.42 14.67-34.79 17.14-34.79Q21.46-34.5 24.38-31.65 27.29-28.81 27.29-24.65 27.29-20.48 23.83-18.16L23.83-18.16Q22.75-17.46 21.51-16.89L21.51-16.89 28.91-4.81Q30.83-1.64 34.08-0.34L34.08-0.34Q34.35-0.27 34.35 0L34.35 0Q34.35 0.61 33.54 0.61L33.54 0.61Q28.05 0.61 24.8-3.56L24.8-3.56Q24.1-4.49 23.39-5.64L23.39-5.64 17.07-15.55 11.25-15.82 11.06-15.82Q10.69-15.82 10.69-15.48L10.69-15.48 10.69-4.22Q10.69-2.88 11.45-2.22 12.21-1.56 14.06-1.32L14.06-1.32Q14.55-1.25 15.26-1.11 15.97-0.98 16.22-0.98 16.48-0.98 16.48-0.78L16.48-0.78 16.48-0.2Q16.48 0 16.28 0L16.28 0ZM12.67-33.51Q12.38-33.5 12.05-33.48 11.72-33.47 11.21-33.46 10.69-33.45 10.69-33.06L10.69-33.06 10.69-18.26 10.74-17.53Q10.82-17.02 11.21-16.99L11.21-16.99 13.7-16.85Q20.56-16.85 21.97-21.73L21.97-21.73Q22.44-23.27 22.44-25.24L22.44-25.24Q22.44-29.1 20.03-31.32 17.63-33.54 13.89-33.54L13.89-33.54Q13.55-33.54 13.26-33.53 12.96-33.52 12.67-33.51ZM34.81-0.2L34.81-0.2 34.81-0.88Q34.81-1.07 35.01-1.07L35.01-1.07 35.54-1.07Q36.57-1.15 37.64-1.16 38.72-1.17 39.6-1.42L39.6-1.42Q41.6-2 41.6-4.35L41.6-4.35 41.6-30.08Q41.6-32.5 38.74-33.15L38.74-33.15Q37.94-33.33 37.11-33.45L37.11-33.45 36.59-33.45Q36.4-33.45 36.4-33.64L36.4-33.64 36.4-34.23Q36.4-34.42 36.59-34.42L36.59-34.42 59.81-34.42Q60.25-34.42 60.45-34.27 60.64-34.11 60.69-33.57L60.69-33.57 61.13-26.49Q61.13-26.25 60.76-26.25 60.4-26.25 60.23-26.46L60.23-26.46Q60.08-26.71 59.85-28.25 59.62-29.79 59.01-30.81 58.4-31.84 56.86-32.1L56.86-32.1 46.68-32.1Q46.36-32.1 46.36-31.79L46.36-31.79 46.36-19.17Q46.36-18.92 46.6-18.92L46.6-18.92 55.05-18.92Q58.32-18.92 58.32-22.73L58.32-22.73Q58.32-22.92 58.52-22.92L58.52-22.92 59.1-22.92Q59.3-22.92 59.3-22.73L59.3-22.73 59.3-12.28Q59.3-12.08 59.1-12.08L59.1-12.08 58.52-12.08Q58.32-12.08 58.32-12.28L58.32-12.28Q58.32-15.89 56.22-16.46L56.22-16.46Q55.64-16.6 54.98-16.6L54.98-16.6 46.6-16.6Q46.36-16.6 46.36-16.36L46.36-16.36 46.36-4.47Q46.36-2.64 48.04-2.39L48.04-2.39Q48.53-2.32 49.07-2.32L49.07-2.32 57.2-2.32Q59.71-2.32 61.11-4.54L61.11-4.54Q62.11-6.13 62.33-8.18L62.33-8.18Q62.4-8.86 63.06-8.86L63.06-8.86Q63.35-8.86 63.35-8.54L63.35-8.54 62.55-0.34Q62.4 0 62.2 0L62.2 0 35.01 0Q34.81 0 34.81-0.2ZM84.74-33.96L86.1-34.13Q86.35-34.13 86.35-33.59L86.35-33.59 86.98-28.39Q87.08-27.91 87.08-27.77 87.08-27.64 86.7-27.64 86.32-27.64 86.23-27.73 86.13-27.83 86.03-28.06 85.93-28.3 85.8-28.59 85.66-28.88 85.52-29.17L85.52-29.17Q85-30.3 83.91-31.4L83.91-31.4Q81.22-33.98 77.85-33.98L77.85-33.98Q75.83-33.98 74.02-32.67 72.21-31.35 72.21-29.55 72.21-27.76 72.88-26.44 73.55-25.12 74.65-24 75.75-22.88 77.17-21.85 78.58-20.83 80.05-19.78L80.05-19.78Q83.93-17.07 85.57-15.14L85.57-15.14Q88.13-12.16 88.35-8.45L88.35-8.45Q88.35-4.3 85.16-1.82 81.98 0.66 77.75 0.66L77.75 0.66Q75.04 0.66 73.44 0.11 71.85-0.44 71.24-0.68 70.62-0.93 70.34-0.93 70.06-0.93 69.99-0.9L69.99-0.9 68.79-0.66Q68.48-0.66 68.4-1.17L68.4-1.17Q67.7-7.23 67.7-7.6 67.7-7.98 67.76-8.12 67.82-8.25 68.09-8.25L68.09-8.25Q68.77-8.25 69.33-6.3L69.33-6.3Q71.89-0.81 77.85-0.81L77.85-0.81Q80.59-0.81 82.53-2.47 84.47-4.13 84.47-6.79L84.47-6.79Q84.47-11.04 79.39-14.7L79.39-14.7Q77.95-15.72 75.24-17.55 72.53-19.38 70.92-21.22L70.92-21.22Q68.4-24.05 68.4-27.53 68.4-31.01 71.17-33.23 73.95-35.45 77.53-35.45L77.53-35.45Q79.39-35.45 81.62-34.81 83.86-34.18 84.74-33.96L84.74-33.96ZM90.72-0.2L90.72-0.2 90.72-0.88Q90.72-1.07 90.91-1.07L90.91-1.07 91.45-1.07Q92.47-1.15 93.55-1.16 94.62-1.17 95.5-1.42L95.5-1.42Q97.5-2 97.5-4.35L97.5-4.35 97.5-30.08Q97.5-32.5 94.65-33.15L94.65-33.15Q93.84-33.33 93.01-33.45L93.01-33.45 92.5-33.45Q92.3-33.45 92.3-33.64L92.3-33.64 92.3-34.23Q92.3-34.42 92.5-34.42L92.5-34.42 115.72-34.42Q116.15-34.42 116.35-34.27 116.55-34.11 116.59-33.57L116.59-33.57 117.03-26.49Q117.03-26.25 116.67-26.25 116.3-26.25 116.13-26.46L116.13-26.46Q115.98-26.71 115.75-28.25 115.52-29.79 114.91-30.81 114.3-31.84 112.76-32.1L112.76-32.1 102.58-32.1Q102.26-32.1 102.26-31.79L102.26-31.79 102.26-19.17Q102.26-18.92 102.51-18.92L102.51-18.92 110.95-18.92Q114.23-18.92 114.23-22.73L114.23-22.73Q114.23-22.92 114.42-22.92L114.42-22.92 115.01-22.92Q115.2-22.92 115.2-22.73L115.2-22.73 115.2-12.28Q115.2-12.08 115.01-12.08L115.01-12.08 114.42-12.08Q114.23-12.08 114.23-12.28L114.23-12.28Q114.23-15.89 112.13-16.46L112.13-16.46Q111.54-16.6 110.88-16.6L110.88-16.6 102.51-16.6Q102.26-16.6 102.26-16.36L102.26-16.36 102.26-4.47Q102.26-2.64 103.95-2.39L103.95-2.39Q104.44-2.32 104.97-2.32L104.97-2.32 113.1-2.32Q115.62-2.32 117.01-4.54L117.01-4.54Q118.01-6.13 118.23-8.18L118.23-8.18Q118.3-8.86 118.96-8.86L118.96-8.86Q119.26-8.86 119.26-8.54L119.26-8.54 118.45-0.34Q118.3 0 118.11 0L118.11 0 90.91 0Q90.72 0 90.72-0.2ZM137.69 0L122.67 0Q122.48 0 122.48-0.49L122.48-0.49 122.48-0.78Q122.48-0.98 122.67-0.98L122.67-0.98Q122.82-0.98 123.13-1.03 123.45-1.07 123.79-1.12 124.14-1.17 124.43-1.23 124.72-1.29 124.84-1.32L124.84-1.32Q127.33-1.88 127.33-4.15L127.33-4.15 127.33-29.93Q127.33-32.03 125.65-32.91L125.65-32.91Q124.65-33.45 123.5-33.45L123.5-33.45 122.57-33.45Q122.38-33.45 122.38-33.64L122.38-33.64 122.38-34.23Q122.38-34.42 122.67-34.42L122.67-34.42 136.07-34.79 138.54-34.79Q142.86-34.5 145.78-31.65 148.7-28.81 148.7-24.65 148.7-20.48 145.23-18.16L145.23-18.16Q144.16-17.46 142.91-16.89L142.91-16.89 150.31-4.81Q152.24-1.64 155.48-0.34L155.48-0.34Q155.75-0.27 155.75 0L155.75 0Q155.75 0.61 154.95 0.61L154.95 0.61Q149.45 0.61 146.21-3.56L146.21-3.56Q145.5-4.49 144.79-5.64L144.79-5.64 138.47-15.55 132.66-15.82 132.46-15.82Q132.09-15.82 132.09-15.48L132.09-15.48 132.09-4.22Q132.09-2.88 132.85-2.22 133.61-1.56 135.46-1.32L135.46-1.32Q135.95-1.25 136.66-1.11 137.37-0.98 137.62-0.98 137.88-0.98 137.88-0.78L137.88-0.78 137.88-0.2Q137.88 0 137.69 0L137.69 0ZM134.07-33.51Q133.78-33.5 133.45-33.48 133.12-33.47 132.61-33.46 132.09-33.45 132.09-33.06L132.09-33.06 132.09-18.26 132.14-17.53Q132.22-17.02 132.61-16.99L132.61-16.99 135.1-16.85Q141.96-16.85 143.37-21.73L143.37-21.73Q143.84-23.27 143.84-25.24L143.84-25.24Q143.84-29.1 141.43-31.32 139.03-33.54 135.29-33.54L135.29-33.54Q134.95-33.54 134.66-33.53 134.37-33.52 134.07-33.51ZM192.66-34.23L192.66-33.64Q192.66-33.45 192.47-33.45L192.47-33.45 191.56-33.45Q188.46-32.84 187-28.37L187-28.37Q186.61-27.2 186.19-26.1L186.19-26.1 176.6-0.2Q176.38 0.42 176.06 0.54 175.74 0.66 175.18 0.66L175.18 0.66 174.04 0.66Q173.45 0.66 173.28 0.12L173.28 0.12 160.41-31.05Q159.63-32.98 156.55-33.42L156.55-33.42Q156.38-33.45 156.27-33.45 156.16-33.45 156.16-33.64L156.16-33.64 156.16-34.23Q156.16-34.42 156.36-34.42L156.36-34.42 170.76-34.42Q170.96-34.42 170.96-34.23L170.96-34.23 170.96-33.64Q170.96-33.45 170.76-33.45L170.76-33.45 170.4-33.45Q169.79-33.35 168.98-33.25L168.98-33.25Q165.86-32.86 165.86-30.76L165.86-30.76Q165.86-30.1 166.2-29.35L166.2-29.35 175.45-6.84Q175.7-6.35 175.96-6.86L175.96-6.86 184.46-29.86Q184.63-30.35 184.63-31.02 184.63-31.69 184.07-32.31 183.51-32.93 182.93-33.03 182.36-33.13 182.03-33.18 181.7-33.23 181.04-33.34 180.38-33.45 180.16-33.45 179.94-33.45 179.94-33.64L179.94-33.64 179.94-34.23Q179.94-34.42 180.14-34.42L180.14-34.42 192.47-34.42Q192.66-34.42 192.66-34.23L192.66-34.23ZM192.95-0.2L192.95-0.2 192.95-0.88Q192.95-1.07 193.15-1.07L193.15-1.07 193.69-1.07Q194.71-1.15 195.79-1.16 196.86-1.17 197.74-1.42L197.74-1.42Q199.74-2 199.74-4.35L199.74-4.35 199.74-30.08Q199.74-32.5 196.88-33.15L196.88-33.15Q196.08-33.33 195.25-33.45L195.25-33.45 194.74-33.45Q194.54-33.45 194.54-33.64L194.54-33.64 194.54-34.23Q194.54-34.42 194.74-34.42L194.74-34.42 217.95-34.42Q218.39-34.42 218.59-34.27 218.78-34.11 218.83-33.57L218.83-33.57 219.27-26.49Q219.27-26.25 218.91-26.25 218.54-26.25 218.37-26.46L218.37-26.46Q218.22-26.71 217.99-28.25 217.76-29.79 217.15-30.81 216.54-31.84 215-32.1L215-32.1 204.82-32.1Q204.5-32.1 204.5-31.79L204.5-31.79 204.5-19.17Q204.5-18.92 204.75-18.92L204.75-18.92 213.19-18.92Q216.46-18.92 216.46-22.73L216.46-22.73Q216.46-22.92 216.66-22.92L216.66-22.92 217.25-22.92Q217.44-22.92 217.44-22.73L217.44-22.73 217.44-12.28Q217.44-12.08 217.25-12.08L217.25-12.08 216.66-12.08Q216.46-12.08 216.46-12.28L216.46-12.28Q216.46-15.89 214.36-16.46L214.36-16.46Q213.78-16.6 213.12-16.6L213.12-16.6 204.75-16.6Q204.5-16.6 204.5-16.36L204.5-16.36 204.5-4.47Q204.5-2.64 206.19-2.39L206.19-2.39Q206.67-2.32 207.21-2.32L207.21-2.32 215.34-2.32Q217.86-2.32 219.25-4.54L219.25-4.54Q220.25-6.13 220.47-8.18L220.47-8.18Q220.54-8.86 221.2-8.86L221.2-8.86Q221.49-8.86 221.49-8.54L221.49-8.54 220.69-0.34Q220.54 0 220.35 0L220.35 0 193.15 0Q192.95 0 192.95-0.2Z" opacity="1" transform="matrix(1,0,0,1,0,0)" fill="#8b3c7f" class="wordmark-text-0" data-fill-palette-color="primary" id="text-0"></path></svg></g></svg></g></svg></g></svg></g><g transform="matrix(1,0,0,1,115.4898471167434,0)"><svg viewBox="0 0 87.01838576651315 71.59828881301894" height="71.59828881301894" width="87.01838576651315"><g><svg xmlns="http://www.w3.org/2000/svg" xmlns:xlink="http://www.w3.org/1999/xlink" version="1.1" x="0" y="0" viewBox="3.5 11.762346267700195 92.9000015258789 76.43765258789062" enable-background="new 0 0 100 100" xml:space="preserve" height="71.59828881301894" width="87.01838576651315" class="icon-icon-0" data-fill-palette-color="accent" id="icon-0"><path d="M96.4 20.4v59.2c0 2.3-1.9 4.2-4.2 4.2H59.4c-0.6 2.5-2.9 4.4-5.6 4.4h-7.5c-2.7 0-5-1.9-5.6-4.4H7.7c-2.3 0-4.2-1.9-4.2-4.2V20.4c0-2.3 1.9-4.2 4.2-4.2h2.7v60h35.8 7.5 35.8v-60h2.7C94.6 16.3 96.4 18.1 96.4 20.4zM85.7 17.2v52.4c0 1-0.5 1.9-1.2 2.5-0.8 0.6-1.8 0.8-2.7 0.5l-0.2 0c-10-2.9-20.7-2.9-30.6 0l-0.2 0c0 0-0.1 0-0.1 0-0.2 0-0.4 0.1-0.6 0.1-0.1 0-0.1 0-0.2 0 0 0-0.1 0-0.1 0-0.1 0-0.1 0-0.2 0-0.2 0-0.3 0-0.5-0.1 0 0-0.1 0-0.1 0l-0.2 0c-10-2.9-20.7-2.9-30.6 0l-0.2 0c-0.3 0.1-0.6 0.1-0.9 0.1-0.7 0-1.3-0.2-1.8-0.6-0.8-0.6-1.2-1.5-1.2-2.5V17.2c0-1.4 0.9-2.6 2.2-2.9C27.3 11 39.1 11 50 14c10.8-3 22.4-3 33.2 0.1l0.3 0.1C84.8 14.6 85.7 15.8 85.7 17.2zM41.6 56.6c-5.2-1.8-10.8-1.8-16 0.1-1 0.3-1.5 1.4-1.1 2.3 0.3 0.8 1 1.2 1.7 1.2 0.2 0 0.4 0 0.6-0.1 4.4-1.5 9.1-1.6 13.6 0 1 0.3 2-0.2 2.3-1.1S42.6 56.9 41.6 56.6zM41.6 48.5c-5.2-1.8-10.8-1.8-16 0.1-1 0.3-1.5 1.4-1.1 2.3 0.3 0.8 1 1.2 1.7 1.2 0.2 0 0.4 0 0.6-0.1 4.4-1.5 9.1-1.6 13.6 0 1 0.3 2-0.2 2.3-1.1C43.1 49.9 42.6 48.8 41.6 48.5zM41.6 40.4c-5.2-1.8-10.8-1.8-16 0.1-1 0.3-1.5 1.4-1.1 2.3 0.3 0.8 1 1.2 1.7 1.2 0.2 0 0.4 0 0.6-0.1 4.4-1.5 9.1-1.6 13.6 0 1 0.3 2-0.2 2.3-1.1S42.6 40.7 41.6 40.4zM41.6 32.3c-5.2-1.8-10.8-1.8-16 0.1-1 0.3-1.5 1.4-1.1 2.3 0.3 0.8 1 1.2 1.7 1.2 0.2 0 0.4 0 0.6-0.1 4.4-1.5 9.1-1.6 13.6 0 1 0.3 2-0.2 2.3-1.1C43.1 33.7 42.6 32.6 41.6 32.3zM41.6 24.2c-5.2-1.8-10.8-1.8-16 0.1-1 0.3-1.5 1.4-1.1 2.3 0.3 0.8 1 1.2 1.7 1.2 0.2 0 0.4 0 0.6-0.1 4.4-1.5 9.1-1.6 13.6 0 1 0.3 2-0.2 2.3-1.1C43.1 25.6 42.6 24.5 41.6 24.2zM74.3 48.5c-5.2-1.8-10.8-1.8-16 0.1-1 0.3-1.5 1.4-1.1 2.3 0.3 0.8 1 1.2 1.7 1.2 0.2 0 0.4 0 0.6-0.1 4.4-1.5 9.1-1.6 13.6 0 1 0.3 2-0.2 2.3-1.1C75.8 49.9 75.3 48.8 74.3 48.5zM74.3 40.4c-5.2-1.8-10.8-1.8-16 0.1-1 0.3-1.5 1.4-1.1 2.3 0.3 0.8 1 1.2 1.7 1.2 0.2 0 0.4 0 0.6-0.1 4.4-1.5 9.1-1.6 13.6 0 1 0.3 2-0.2 2.3-1.1C75.8 41.8 75.3 40.7 74.3 40.4zM74.3 32.3c-5.2-1.8-10.8-1.8-16 0.1-1 0.3-1.5 1.4-1.1 2.3 0.3 0.8 1 1.2 1.7 1.2 0.2 0 0.4 0 0.6-0.1 4.4-1.5 9.1-1.6 13.6 0 1 0.3 2-0.2 2.3-1.1C75.8 33.7 75.3 32.6 74.3 32.3zM74.3 24.2c-5.2-1.8-10.8-1.8-16 0.1-1 0.3-1.5 1.4-1.1 2.3 0.3 0.8 1 1.2 1.7 1.2 0.2 0 0.4 0 0.6-0.1 4.4-1.5 9.1-1.6 13.6 0 1 0.3 2-0.2 2.3-1.1C75.8 25.6 75.3 24.5 74.3 24.2z" fill="#8b3c7f" data-fill-palette-color="accent"></path></svg></g></svg></g><g></g></svg></g></svg></g></svg></g><defs></defs></svg><rect width="375.07952880859375" height="238.63455200195312" fill="none" stroke="none" visibility="hidden"></rect></g></svg></g></svg>