<svg xmlns="http://www.w3.org/2000/svg" version="1.1" xmlns:xlink="http://www.w3.org/1999/xlink" xmlns:svgjs="http://svgjs.dev/svgjs" width="1000" height="285" viewBox="0 0 1000 285"><g transform="matrix(1,0,0,1,-0.6060606060606233,0.30273414466282134)"><svg viewBox="0 0 396 113" data-background-color="#ffffff" preserveAspectRatio="xMidYMid meet" height="285" width="1000" xmlns="http://www.w3.org/2000/svg" xmlns:xlink="http://www.w3.org/1999/xlink"><g id="tight-bounds" transform="matrix(1,0,0,1,0.2400000000000091,-0.12003143279613937)"><svg viewBox="0 0 395.52 113.24006286559224" height="113.24006286559224" width="395.52"><g><svg viewBox="0 0 677.8847073949504 194.0829967663526" height="113.24006286559224" width="395.52"><g><rect width="6.582868877797968" height="141.13850343718113" x="258.54919747579646" y="26.47224666458574" fill="#e83d95" opacity="1" stroke-width="0" stroke="transparent" fill-opacity="1" class="rect-r$-0" data-fill-palette-color="primary" rx="1%" id="r$-0" data-palette-color="#e83d95"></rect></g><g transform="matrix(1,0,0,1,282.36470739495036,26.82333746915583)"><svg viewBox="0 0 395.52 140.43632182804095" height="140.43632182804095" width="395.52"><g id="textblocktransform"><svg viewBox="0 0 395.52 140.43632182804095" height="140.43632182804095" width="395.52" id="textblock"><g><svg viewBox="0 0 395.52 72.9961581920904" height="72.9961581920904" width="395.52"><g transform="matrix(1,0,0,1,0,0)"><svg width="395.52" viewBox="3.65 -33.95 185.84 34.300000000000004" height="72.9961581920904" data-palette-color="#e83d95"><g class="wordmark-text-0" data-fill-palette-color="primary" id="text-0"><path d="M13.2-29.4L13.2-29.4 8.8-29.4 8.8-17.1 13.45-17.1Q16.65-17.1 18.3-18.78 19.95-20.45 19.95-23.25L19.95-23.25Q19.95-29.4 13.2-29.4ZM8.8-12.8L8.8 0 3.65 0 3.65-33.7 13.05-33.7Q18.85-33.7 22-30.88 25.15-28.05 25.15-23.2L25.15-23.2Q25.1-19.65 23.35-17.18 21.6-14.7 18.5-13.6L18.5-13.6 27.3 0 21.15 0 13.25-12.8 8.8-12.8ZM51.5-4.3L51.5 0 32.05 0 32.05-33.7 51.25-33.7 51.25-29.4 37.2-29.4 37.2-19 49.65-19 49.65-14.7 37.2-14.7 37.2-4.3 51.5-4.3ZM77.7-9.2L77.7-9.2Q77.7-4.75 74.55-2.2 71.4 0.35 66.4 0.35L66.4 0.35Q60.85 0.35 57.2-1.8L57.2-1.8 57.2-7.15Q61.15-4.2 66.34-4.2L66.34-4.2Q69.09-4.2 70.7-5.48 72.3-6.75 72.3-9L72.3-9Q72.3-10.35 71.34-11.48 70.4-12.6 69.3-13.18 68.2-13.75 66-14.75L66-14.75Q64.7-15.35 64.17-15.6 63.65-15.85 62.45-16.5 61.25-17.15 60.67-17.6 60.1-18.05 59.25-18.85 58.4-19.65 58.02-20.45 57.65-21.25 57.32-22.33 57-23.4 57-24.65L57-24.65Q57-28.95 60.12-31.45 63.25-33.95 68.2-33.95L68.2-33.95Q72.75-33.95 75.95-32.35L75.95-32.35 75.95-27.25Q72.59-29.35 68.34-29.35L68.34-29.35Q65.59-29.35 64.02-28.13 62.45-26.9 62.45-24.9 62.45-22.9 64-21.7 65.55-20.5 68.75-19.1L68.75-19.1Q70.84-18.2 72.02-17.55 73.2-16.9 74.72-15.73 76.25-14.55 76.97-12.93 77.7-11.3 77.7-9.2ZM103.24-4.3L103.24 0 83.79 0 83.79-33.7 102.99-33.7 102.99-29.4 88.94-29.4 88.94-19 101.39-19 101.39-14.7 88.94-14.7 88.94-4.3 103.24-4.3ZM119.04-29.4L119.04-29.4 114.64-29.4 114.64-17.1 119.29-17.1Q122.49-17.1 124.14-18.78 125.79-20.45 125.79-23.25L125.79-23.25Q125.79-29.4 119.04-29.4ZM114.64-12.8L114.64 0 109.49 0 109.49-33.7 118.89-33.7Q124.69-33.7 127.84-30.88 130.99-28.05 130.99-23.2L130.99-23.2Q130.94-19.65 129.19-17.18 127.44-14.7 124.34-13.6L124.34-13.6 133.14 0 126.99 0 119.09-12.8 114.64-12.8ZM164.89-33.7L153.24 0 147.14 0 135.79-33.7 141.29-33.7 145.59-20.3Q146.99-16 148.14-12.08 149.29-8.15 149.74-6.4L149.74-6.4 150.24-4.6Q151.84-10.6 155.04-20.3L155.04-20.3 159.39-33.7 164.89-33.7ZM189.49-4.3L189.49 0 170.04 0 170.04-33.7 189.24-33.7 189.24-29.4 175.19-29.4 175.19-19 187.64-19 187.64-14.7 175.19-14.7 175.19-4.3 189.49-4.3Z" fill="#e83d95" data-fill-palette-color="primary"></path></g></svg></g></svg></g><g transform="matrix(1,0,0,1,0,90.22879923344634)"><svg viewBox="0 0 232.209792 50.20752259459459" height="50.20752259459459" width="232.209792"><g transform="matrix(1,0,0,1,0,0)"><svg width="232.209792" viewBox="2.65 -35.5 166.48999999999998 36" height="50.20752259459459" data-palette-color="#a62a6c"><path d="M3.9-26.35L3.9-26.35Q3.9-31.2 6.35-33.35 8.8-35.5 14.3-35.5L14.3-35.5Q18.15-35.5 20.5-33.5 22.85-31.5 23.9-27.4L23.9-27.4 19.25-23.9 16.8-23.9 22.2-27.95Q21.15-31.3 19.18-32.65 17.2-34 14.3-34L14.3-34Q12.3-34 10.93-33.75 9.55-33.5 8.18-32.77 6.8-32.05 6.1-30.45 5.4-28.85 5.4-26.35L5.4-26.35Q5.4-24.15 7.43-22.45 9.45-20.75 12.35-19.55 15.25-18.35 18.18-17.1 21.1-15.85 23.13-13.9 25.15-11.95 25.15-9.4L25.15-9.4Q25.15-4.4 22.68-1.95 20.2 0.5 14.2 0.5L14.2 0.5Q9.3 0.5 6.5-1.48 3.7-3.45 2.65-7.6L2.65-7.6 4.05-8.2Q5.05-4.15 7.48-2.58 9.9-1 14.2-1L14.2-1Q19-1 21.33-2.85 23.65-4.7 23.65-9.4L23.65-9.4Q23.65-11.6 21.63-13.3 19.6-15 16.68-16.2 13.75-17.4 10.85-18.65 7.95-19.9 5.93-21.85 3.9-23.8 3.9-26.35ZM34.7-33.5L34.7-35 54.95-35 42.45-15 42.45 0 40.95 0 40.95-15 28.45-35 30.2-35 41.7-16.65 52.25-33.5 34.7-33.5ZM59.24-26.35L59.24-26.35Q59.24-31.2 61.7-33.35 64.14-35.5 69.64-35.5L69.64-35.5Q73.5-35.5 75.84-33.5 78.19-31.5 79.25-27.4L79.25-27.4 74.59-23.9 72.14-23.9 77.55-27.95Q76.5-31.3 74.52-32.65 72.55-34 69.64-34L69.64-34Q67.64-34 66.27-33.75 64.89-33.5 63.52-32.77 62.14-32.05 61.45-30.45 60.74-28.85 60.74-26.35L60.74-26.35Q60.74-24.15 62.77-22.45 64.8-20.75 67.69-19.55 70.59-18.35 73.52-17.1 76.44-15.85 78.47-13.9 80.5-11.95 80.5-9.4L80.5-9.4Q80.5-4.4 78.02-1.95 75.55 0.5 69.55 0.5L69.55 0.5Q64.64 0.5 61.84-1.48 59.05-3.45 57.99-7.6L57.99-7.6 59.39-8.2Q60.39-4.15 62.82-2.58 65.25-1 69.55-1L69.55-1Q74.34-1 76.67-2.85 79-4.7 79-9.4L79-9.4Q79-11.6 76.97-13.3 74.94-15 72.02-16.2 69.09-17.4 66.19-18.65 63.3-19.9 61.27-21.85 59.24-23.8 59.24-26.35ZM84.14-35L109.14-35 109.14-33.5 97.39-33.5 97.39 0 95.89 0 95.89-33.5 84.14-33.5 84.14-35ZM132.79-19.8L132.79-18.3 117.94-18.3 133.24-33.5 116.34-33.5 116.34-1.5 135.74-1.5 135.74 0 114.84 0 114.84-35 136.89-35 121.59-19.8 132.79-19.8ZM147.94-0.05L147.94-1.5 167.64-1.5 167.64-31.45 156.39-7.35 145.14-31.5 145.14 0 143.64-0.05 143.64-35.05 145.14-35.05 156.39-10.9 167.64-35 169.14-35.05 169.14 0 147.94-0.05Z" opacity="1" transform="matrix(1,0,0,1,0,0)" fill="#a62a6c" class="slogan-text-1" data-fill-palette-color="secondary" id="text-1"></path></svg></g></svg></g></svg></g></svg></g><g><svg viewBox="0 0 241.31655643444054 194.0829967663526" height="194.0829967663526" width="241.31655643444054"><g><svg xmlns="http://www.w3.org/2000/svg" xmlns:xlink="http://www.w3.org/1999/xlink" version="1.1" x="0" y="0" viewBox="0 9.786 100.00034525290006 80.42699999999999" enable-background="new 0 0 100 100" xml:space="preserve" width="241.31655643444054" height="194.0829967663526" class="icon-icon-0" data-fill-palette-color="accent" id="icon-0"><path d="M49.942 52.994c13.552-0.488 27.103-0.977 40.653-1.465-2.527-4.177-3.159-7.831-7.989-8.461-7.229-0.94-14.458-1.883-21.688-2.826-14.023-1.827-28.05-3.654-42.075-5.48C20.101 36.792 39.724 53.361 49.942 52.994z" fill="#a62a6c" data-fill-palette-color="accent"></path><path d="M0 9.786c4.391 7.257 26.615 23.072 32.953 23.886 17.33 2.231 34.657 4.46 51.986 6.688-3.393-5.607-4.18-9.35-10.312-10.959-8.904-2.341-17.812-4.683-26.717-7.023C31.94 18.182 15.97 13.984 0 9.786z" fill="#a62a6c" data-fill-palette-color="accent"></path><path d="M63.108 66.207c10.413-2.219 20.826-4.439 31.241-6.66-2.028-3.346-2.034-5.359-5.827-5.189-6.158 0.273-12.314 0.549-18.471 0.822-11.343 0.506-22.686 1.014-34.028 1.518C37.298 58.064 54.94 67.947 63.108 66.207z" fill="#a62a6c" data-fill-palette-color="accent"></path><path d="M87.682 90.213c5.725-3.719 7.262-7.721 10.519-13.807 3.651-6.824 1.257-7.844-2.821-14.596-0.417-0.688-5.842 0.232-6.453 0.904-0.745 0.818-0.248 5.455-0.294 6.496C88.315 76.211 87.998 83.213 87.682 90.213z" fill="#a62a6c" data-fill-palette-color="accent"></path><path d="M86.35 63.447c-3.795 0.809-8.604 0.191-9.572 4.229-1.373 5.736-2.746 11.475-4.12 17.211C81.904 82.678 86.028 71.582 86.35 63.447z" fill="#a62a6c" data-fill-palette-color="accent"></path><path d="M74.666 66.121c-9.148 1.953-8.956 4.611-12.879 13.18C68.007 78.711 73.811 71.941 74.666 66.121z" fill="#a62a6c" data-fill-palette-color="accent"></path></svg></g></svg></g></svg></g><defs></defs></svg><rect width="395.52" height="113.24006286559224" fill="none" stroke="none" visibility="hidden"></rect></g></svg></g></svg>